<?xml version="1.0" standalone="no"?>
<!DOCTYPE svg PUBLIC "-//W3C//DTD SVG 20010904//EN"
 "http://www.w3.org/TR/2001/REC-SVG-20010904/DTD/svg10.dtd">
<svg version="1.0" xmlns="http://www.w3.org/2000/svg"
 width="90.000000pt" height="30.000000pt" viewBox="0 0 500.000000 512.000000"
 preserveAspectRatio="xMidYMid meet">

<g transform="translate(0.000000,512.000000) scale(0.100000,-0.100000)"
fill="#FBFCFC" stroke="none">
<path d="M4275 4104 c-120 -10 -342 -48 -481 -84 -435 -111 -841 -327 -1219
-651 -205 -175 -480 -484 -587 -660 -42 -68 -55 -139 -40 -207 38 -165 459
-635 797 -889 428 -321 860 -503 1380 -580 185 -27 591 -24 784 6 628 97 1182
381 1670 856 178 174 351 380 434 518 63 104 59 205 -13 316 -131 203 -444
539 -665 715 -436 348 -907 558 -1425 637 -131 20 -504 33 -635 23z m-841
-821 c-296 -445 -295 -993 2 -1448 l19 -29 -70 38 c-100 54 -276 173 -375 252
-106 84 -333 306 -407 397 l-55 67 55 68 c81 99 317 326 427 411 133 104 385
266 419 271 2 0 -5 -12 -15 -27z m1276 -10 c233 -66 423 -249 496 -477 95
-300 4 -615 -233 -811 -235 -194 -575 -223 -842 -72 -96 54 -215 171 -270 264
-185 314 -117 723 160 953 193 161 443 213 689 143z m1015 -62 c214 -132 520
-397 670 -581 l57 -70 -57 -70 c-89 -109 -333 -340 -459 -434 -120 -91 -258
-181 -340 -223 l-50 -25 19 28 c296 446 296 1002 0 1448 l-19 28 45 -22 c24
-13 84 -48 134 -79z"/>
<path d="M4443 2959 c-125 -16 -250 -109 -307 -229 -29 -60 -31 -73 -31 -170
0 -97 2 -110 31 -170 39 -83 111 -155 193 -193 283 -133 599 91 573 406 -4 45
-6 48 -26 42 -105 -33 -173 -22 -240 36 -57 50 -81 109 -73 181 3 29 8 63 12
74 6 20 3 22 -37 25 -24 2 -67 1 -95 -2z"/>
</g>
</svg>
